<mxfile host="65bd71144e">
    <diagram id="kvlNci69M8rh5mAFWGKm" name="Page-1">
        <mxGraphModel dx="2553" dy="1110" grid="1" gridSize="10" guides="1" tooltips="1" connect="1" arrows="1" fold="1" page="1" pageScale="1" pageWidth="1600" pageHeight="900" math="0" shadow="0">
            <root>
                <mxCell id="0"/>
                <mxCell id="1" parent="0"/>
                <mxCell id="3" value="" style="verticalLabelPosition=bottom;verticalAlign=top;html=1;shape=mxgraph.basic.rect;fillColor2=none;strokeWidth=1;size=20;indent=5;labelBackgroundColor=#FFFFFF;" vertex="1" parent="1">
                    <mxGeometry x="360" y="225" width="880" height="450" as="geometry"/>
                </mxCell>
                <mxCell id="6" value="Doge(Player)" style="text;html=1;resizable=0;autosize=1;align=center;verticalAlign=middle;points=[];fillColor=none;strokeColor=none;rounded=0;labelBackgroundColor=none;fontColor=#000000;" vertex="1" parent="1">
                    <mxGeometry x="460" y="370" width="90" height="20" as="geometry"/>
                </mxCell>
                <mxCell id="20" value="TASK" style="shape=partialRectangle;whiteSpace=wrap;html=1;top=0;left=0;fillColor=none;labelBackgroundColor=none;fontColor=#000000;" vertex="1" parent="1">
                    <mxGeometry x="360" y="225" width="150" height="30" as="geometry"/>
                </mxCell>
                <mxCell id="37" value="" style="verticalLabelPosition=bottom;verticalAlign=top;html=1;shape=mxgraph.basic.smiley;labelBackgroundColor=none;fontSize=30;fontColor=#000000;" vertex="1" parent="1">
                    <mxGeometry x="480" y="400" width="50" height="50" as="geometry"/>
                </mxCell>
                <mxCell id="38" value="&lt;font style=&quot;font-size: 40px&quot;&gt;Press Space&lt;br&gt;To Start&lt;/font&gt;" style="text;html=1;resizable=0;autosize=1;align=center;verticalAlign=middle;points=[];fillColor=none;strokeColor=none;rounded=0;labelBackgroundColor=none;fontSize=30;fontColor=#000000;" vertex="1" parent="1">
                    <mxGeometry x="680" y="405" width="240" height="90" as="geometry"/>
                </mxCell>
                <mxCell id="39" value="&lt;font style=&quot;font-size: 22px&quot;&gt;*Moving background*&lt;/font&gt;" style="text;html=1;resizable=0;autosize=1;align=center;verticalAlign=middle;points=[];fillColor=none;strokeColor=none;rounded=0;labelBackgroundColor=none;fontSize=40;fontColor=#000000;" vertex="1" parent="1">
                    <mxGeometry x="690" y="300" width="220" height="60" as="geometry"/>
                </mxCell>
            </root>
        </mxGraphModel>
    </diagram>
</mxfile>